# xmcd
# Track frame offsets:
# 150
# 14715
# 30645
# 48370
# 67075
# 89145
# 105280
# 136665
# 153070
# 164320
# 179100
# 189905
#
# Disc length: 2754 seconds
# Revision: 0
# Processed by: cddbd v1.4PL0 Copyright (c) Steve Scherf et al.
# Submitted via: VisiTrax 2.9.5.180 - For more info visit www.synapsa.com
#
DISCID=9b0ac00c
DTITLE=Various Artist - Country Traxx
DYEAR=2001
DGENRE=Country
TTITLE0=McBride Martina - Wrong Again
TTITLE1=Lonestar - What About Now
TTITLE2=Vassar Phil - Just Another Day in Paradise
TTITLE3=Chesney Kenny - She Thinks My Tractor's Sexy
TTITLE4=Johnson Carolyn Dawn - Georgia
TTITLE5=Jones George - Who's Gonna Fill Their Shoes
TTITLE6=Alabama - When It All Goes South
TTITLE7=Evans Sara - No Place That Far
TTITLE8=Jackson Alan - Tall, Tall Trees
TTITLE9=Brooks and Dunn - I Would For You
TTITLE10=Diamond Rio - Unbelievable
TTITLE11=Paisley Brad - He Didn't Have To Be
EXTD=Hit new country compilation album.
EXTT0=
EXTT1=
EXTT2=
EXTT3=
EXTT4=
EXTT5=
EXTT6=
EXTT7=
EXTT8=
EXTT9=
EXTT10=
EXTT11=
PLAYORDER=
